<svg xmlns="http://www.w3.org/2000/svg" xmlns:xlink="http://www.w3.org/1999/xlink" viewBox="0 0 148.829 148.829" fill="#fff" fill-rule="evenodd" stroke="#000" stroke-linecap="round" stroke-linejoin="round"><use xlink:href="#A" x=".915" y=".915"/><symbol id="A" overflow="visible"><g stroke="none"><path d="M138.265 146.34a8.08 8.08 0 0 0 8.076-8.078V8.076A8.08 8.08 0 0 0 138.265 0H8.076C3.615 0 0 3.615 0 8.076v130.19a8.08 8.08 0 0 0 8.076 8.076h130.19z" fill="#3c5a99"/><path d="M99.18 146.2v-57.09h18.878l2.826-22.25H99.18V52.652c0-6.44 1.762-10.83 10.86-10.83l11.605-.005V21.915c-2.007-.27-8.896-.878-16.912-.878-16.732 0-28.17 10.368-28.17 29.41v16.41h-18.94v22.25h18.926v57.09H99.18z"/></g></symbol></svg>