<svg xmlns="http://www.w3.org/2000/svg" xmlns:xlink="http://www.w3.org/1999/xlink" viewBox="0 0 513 514" fill="#fff" fill-rule="evenodd" stroke="#000" stroke-linecap="round" stroke-linejoin="round"><use xlink:href="#A" x=".5" y=".5"/><symbol id="A" overflow="visible"><g stroke="none" fill-rule="nonzero"><path d="M0 76.8C0 34.253 34.253 0 76.8 0h358.4C477.747 0 512 34.253 512 76.8v358.4c0 42.547-34.253 76.8-76.8 76.8H76.8C34.253 512 0 477.747 0 435.2z" fill="#ed1d24"/><path d="M427 169c-4-15-17-27-32-31-34-9-239-10-278 0-15 4-28 16-32 31-9 38-10 135 0 174 4 15 17 27 32 31 36 10 241 10 278 0 15-4 28-16 32-31 9-36 9-137 0-174"/><path d="M220 203v106l93-53" fill="#ed1d24"/></g></symbol></svg>